<?xml version="1.0" encoding="UTF-8"?>
<svg width="24px" height="24px" viewBox="0 0 24 24" version="1.1" xmlns="http://www.w3.org/2000/svg" xmlns:xlink="http://www.w3.org/1999/xlink">
    <title>icon-instagram-footer</title>
    <defs>
        <polygon id="path-1" points="0 0.00756354987 23.9924285 0.00756354987 23.9924285 23.9721718 0 23.9721718"></polygon>
    </defs>
    <g id="MDv5" stroke="none" stroke-width="1" fill="none" fill-rule="evenodd">
        <g id="Home" transform="translate(-105.000000, -3597.000000)">
            <g id="footer" transform="translate(0.000000, 3359.000000)">
                <g id="left" transform="translate(69.000000, 104.000000)">
                    <g id="icon-instagram-footer" transform="translate(36.000000, 134.000000)">
                        <g id="Fill-1-Clipped">
                            <mask id="mask-2" fill="white">
                                <use xlink:href="#path-1"></use>
                            </mask>
                            <g id="path-1"></g>
                            <path d="M11.9962381,0.00756354987 C8.73823812,0.00756354987 8.3297143,0.0213587038 7.05019047,0.0796789061 C5.77333333,0.137856399 4.90128571,0.340454883 4.1382381,0.636717705 C3.34938095,0.942922552 2.68038095,1.35268619 2.01342857,2.01889699 C1.34652381,2.68515534 0.936333337,3.35345919 0.629809524,4.14149546 C0.333238095,4.90374907 0.130428571,5.77488925 0.0721904762,7.05041772 C0.0138095238,8.32861006 0,8.73670877 0,11.9913186 C0,15.2458808 0.0138095238,15.6539795 0.0721904762,16.9321719 C0.130428571,18.2077003 0.333238095,19.0788405 0.629809524,19.8410941 C0.936333337,20.6291304 1.34652381,21.2974342 2.01342857,21.9636926 C2.68038095,22.6299034 3.34938095,23.039667 4.1382381,23.3459194 C4.90128571,23.6421347 5.77333333,23.8447332 7.05019047,23.9029106 C8.3297143,23.9612309 8.73823812,23.975026 11.9962381,23.975026 C15.2541905,23.975026 15.6627143,23.9612309 16.9422381,23.9029106 C18.2190952,23.8447332 19.0911429,23.6421347 19.8541905,23.3459194 C20.6430476,23.039667 21.3120476,22.6299034 21.979,21.9636926 C22.6459047,21.2974342 23.0560953,20.6291304 23.3626667,19.8410941 C23.6591905,19.0788405 23.862,18.2077003 23.9202381,16.9321719 C23.978619,15.6539795 23.9924285,15.2458808 23.9924285,11.9913186 C23.9924285,8.73670877 23.978619,8.32861006 23.9202381,7.05041772 C23.862,5.77488925 23.6591905,4.90374907 23.3626667,4.14149546 C23.0560953,3.35345919 22.6459047,2.68515534 21.979,2.01889699 C21.3120476,1.35268619 20.6430476,0.942922552 19.8541905,0.636717705 C19.0911429,0.340454883 18.2190952,0.137856399 16.9422381,0.0796789061 C15.6627143,0.0213587038 15.2541905,0.00756354987 11.9962381,0.00756354987 Z M11.9962381,2.16679054 C15.1993333,2.16679054 15.5787619,2.1790159 16.8437143,2.23667014 C18.0133333,2.28994797 18.6485238,2.48517318 19.0712381,2.64928795 C19.6311905,2.86668054 20.0308095,3.12636242 20.4505714,3.54573509 C20.870381,3.96506021 21.1303333,4.36426342 21.3479524,4.92363312 C21.5122381,5.34590754 21.7076666,5.98043704 21.761,7.14883901 C21.8187143,8.41247512 21.8309524,8.79150883 21.8309524,11.9913186 C21.8309524,15.1910807 21.8187143,15.5701144 21.761,16.8337506 C21.7076666,18.0021525 21.5122381,18.6366821 21.3479524,19.0589564 C21.1303333,19.6183261 20.870381,20.0175293 20.4505714,20.4368545 C20.0308095,20.8562271 19.6311905,21.115909 19.0712381,21.3333016 C18.6485238,21.4974164 18.0133333,21.6926416 16.8437143,21.7459195 C15.5789524,21.8035737 15.1995715,21.815799 11.9962381,21.815799 C8.79285716,21.815799 8.41352385,21.8035737 7.14871428,21.7459195 C5.97909524,21.6926416 5.34390476,21.4974164 4.92119048,21.3333016 C4.36123809,21.115909 3.96161905,20.8562271 3.54185714,20.4368545 C3.12209524,20.0175293 2.86209524,19.6183261 2.64447619,19.0589564 C2.48019048,18.6366821 2.2847619,18.0021525 2.23142857,16.8337506 C2.17371429,15.5701144 2.16147619,15.1910807 2.16147619,11.9913186 C2.16147619,8.79150883 2.17371429,8.41247512 2.23142857,7.14883901 C2.2847619,5.98043704 2.48019048,5.34590754 2.64447619,4.92363312 C2.86209524,4.36426342 3.12204762,3.96506021 3.54185714,3.54573509 C3.96161905,3.12636242 4.36123809,2.86668054 4.92119048,2.64928795 C5.34390476,2.48517318 5.97909524,2.28994797 7.14871428,2.23667014 C8.41366668,2.1790159 8.79309523,2.16679054 11.9962381,2.16679054 L11.9962381,2.16679054 Z" id="Fill-1" fill="#051319" fill-rule="nonzero" mask="url(#mask-2)"></path>
                        </g>
                        <path d="M12.0000225,16.5432961 C9.91837246,16.5432961 8.23089747,14.8558211 8.23089747,12.774216 C8.23089747,10.692566 9.91837246,9.00509102 12.0000225,9.00509102 C14.0816275,9.00509102 15.7691025,10.692566 15.7691025,12.774216 C15.7691025,14.8558211 14.0816275,16.5432961 12.0000225,16.5432961 Z M12.0000225,6.96774194 C8.79316467,6.96774194 6.19354839,9.56735822 6.19354839,12.774216 C6.19354839,15.9810289 8.79316467,18.5806452 12.0000225,18.5806452 C15.2068353,18.5806452 17.8064516,15.9810289 17.8064516,12.774216 C17.8064516,9.56735822 15.2068353,6.96774194 12.0000225,6.96774194 L12.0000225,6.96774194 Z" id="Fill-4" fill="#051319" fill-rule="nonzero"></path>
                        <path d="M20.1290323,6.193574 C20.1290323,7.04873256 19.4357781,7.74193548 18.5806195,7.74193548 C17.7255122,7.74193548 17.0322581,7.04873256 17.0322581,6.193574 C17.0322581,5.33841543 17.7255122,4.64516129 18.5806195,4.64516129 C19.4357781,4.64516129 20.1290323,5.33841543 20.1290323,6.193574" id="Fill-5" fill="#051319" fill-rule="nonzero"></path>
                    </g>
                </g>
            </g>
        </g>
    </g>
</svg>