<?xml version="1.0" encoding="UTF-8"?>
<svg width="40px" height="37px" viewBox="0 0 40 37" version="1.1" xmlns="http://www.w3.org/2000/svg" xmlns:xlink="http://www.w3.org/1999/xlink">
    <title>icon-gift</title>
    <g id="MDv5" stroke="none" stroke-width="1" fill="none" fill-rule="evenodd">
        <g id="Home" transform="translate(-318.000000, -1435.000000)" fill-rule="nonzero">
            <g id="newsletter" transform="translate(293.000000, 896.000000)">
                <g id="sign-up" transform="translate(0.000000, 475.000000)">
                    <g id="icon-gift" transform="translate(25.000000, 64.000000)">
                        <path d="M29.2471014,17.4939614 L23.1702899,17.4939614 C24.5756459,17.1297081 25.8965572,16.4950964 27.0591787,15.6256039 C28.2077884,14.5511428 28.6792913,12.9359627 28.2891243,11.4123025 C27.8989572,9.88864228 26.7091838,8.69886885 25.1855236,8.30870183 C23.6618634,7.91853481 22.0466833,8.39003764 20.9722222,9.53864734 C20.5459755,10.0351093 20.2033358,10.5976096 19.9577295,11.2041063 C19.712938,10.5972002 19.370221,10.0345731 18.9432367,9.53864734 C17.2471165,7.95202038 14.5983868,7.99618118 12.9561004,9.63846754 C11.313814,11.2807539 11.2696532,13.9294836 12.8562802,15.6256039 C14.0186988,16.495431 15.3396786,17.1300757 16.7451691,17.4939614 L10.6480676,17.4939614 C9.01466427,17.4958249 7.69099399,18.8194952 7.68913043,20.4528986 L7.68913043,22.1437198 C7.70200702,23.7725322 9.01925522,25.0897804 10.6480676,25.102657 L18.2567633,25.102657 C18.490217,25.102657 18.6794686,24.9134054 18.6794686,24.6799517 L18.6794686,17.4939614 L21.2157005,17.4939614 L21.2157005,24.6799517 C21.2157005,24.9134054 21.4049521,25.102657 21.6384058,25.102657 L29.2471014,25.102657 C30.8762936,25.0906873 32.194069,23.7729119 32.2060386,22.1437198 L32.2060386,20.4528986 C32.2041751,18.8194952 30.8805048,17.4958249 29.2471014,17.4939614 L29.2471014,17.4939614 Z M23.3613527,11.926087 C23.7199375,11.5618992 24.3058605,11.5573572 24.6700483,11.9159421 C25.034236,12.2745269 25.0387781,12.8604499 24.6801932,13.2246377 C23.9674735,13.6361714 23.2064198,13.9576314 22.4144928,14.1816425 C22.633649,13.3928407 22.951799,12.6349618 23.3613527,11.926087 Z M15.2251208,11.926087 C15.5793964,11.5699225 16.1534319,11.562409 16.5169082,11.9091787 C16.9327081,12.6227845 17.2559978,13.3864072 17.4789855,14.1816425 C16.6874144,13.9581466 15.9268577,13.6366566 15.2149758,13.2246377 C14.862825,12.8617874 14.8673437,12.2833909 15.2251208,11.926087 L15.2251208,11.926087 Z" id="Shape" fill="#051319"></path>
                        <path d="M21.6384058,27.6388889 C21.4049521,27.6388889 21.2157005,27.8281405 21.2157005,28.0615942 L21.2157005,36.5157005 C21.2157005,36.7491542 21.4049521,36.9384058 21.6384058,36.9384058 L25.9821256,36.9384058 C27.5326078,36.9329472 28.8178325,35.7353682 28.9326087,34.1891304 L29.3688406,28.092029 C29.3762881,27.9749994 29.3351744,27.8600738 29.2551842,27.7743243 C29.1751941,27.6885749 29.0633995,27.6395828 28.9461353,27.6388889 L21.6384058,27.6388889 Z" id="Path" fill="#051319"></path>
                        <path d="M18.6794686,28.0615942 C18.6794686,27.8281405 18.490217,27.6388889 18.2567633,27.6388889 L10.947343,27.6388889 C10.8300505,27.6390536 10.7180998,27.6879465 10.6382633,27.7738749 C10.5584269,27.8598033 10.5178833,27.9750408 10.5263285,28.092029 L10.9625604,34.1891304 C11.0773366,35.7353682 12.3625613,36.9329472 13.9130435,36.9384058 L18.2567633,36.9384058 C18.490217,36.9384058 18.6794686,36.7491542 18.6794686,36.5157005 L18.6794686,28.0615942 Z" id="Path" fill="#051319"></path>
                        <path d="M19.9475845,6.08091787 C20.8813993,6.08091787 21.6384058,5.32391141 21.6384058,4.39009662 L21.6384058,1.85386473 C21.6384058,0.92004994 20.8813993,0.163043478 19.9475845,0.163043478 C19.0137697,0.163043478 18.2567633,0.92004994 18.2567633,1.85386473 L18.2567633,4.39009662 C18.2567633,5.32391141 19.0137697,6.08091787 19.9475845,6.08091787 Z" id="Path" fill="#FA7660"></path>
                        <path d="M10.0613527,10.1574879 C10.7214187,9.49722247 10.7214187,8.42693212 10.0613527,7.76666667 L8.2673913,5.97439614 C7.60394874,5.33362187 6.54937357,5.34278584 5.89716666,5.99499275 C5.24495975,6.64719965 5.23579578,7.70177483 5.87657005,8.36521739 L7.6705314,10.1574879 C8.33079685,10.817554 9.40108721,10.817554 10.0613527,10.1574879 Z" id="Path" fill="#FA7660"></path>
                        <path d="M4.26183575,18.339372 L1.72560386,18.339372 C0.79178907,18.339372 0.0347826087,19.0963784 0.0347826087,20.0301932 C0.0347826087,20.964008 0.79178907,21.7210145 1.72560386,21.7210145 L4.26183575,21.7210145 C5.19565054,21.7210145 5.952657,20.964008 5.952657,20.0301932 C5.952657,19.0963784 5.19565054,18.339372 4.26183575,18.339372 Z" id="Path" fill="#FA7660"></path>
                        <path d="M34.12343,5.97439614 C33.4631645,5.31433006 32.3928741,5.31433006 31.7326087,5.97439614 L29.9386473,7.76666667 C29.2978731,8.43010923 29.307037,9.48468441 29.959244,10.1368913 C30.6114509,10.7890982 31.666026,10.7982622 32.3294686,10.1574879 L34.12343,8.36521739 C34.783496,7.70495194 34.783496,6.63466158 34.12343,5.97439614 L34.12343,5.97439614 Z" id="Path" fill="#FA7660"></path>
                        <path d="M38.2743961,18.339372 L35.7381643,18.339372 C34.8043495,18.339372 34.047343,19.0963784 34.047343,20.0301932 C34.047343,20.964008 34.8043495,21.7210145 35.7381643,21.7210145 L38.2743961,21.7210145 C39.2082109,21.7210145 39.9652174,20.964008 39.9652174,20.0301932 C39.9652174,19.0963784 39.2082109,18.339372 38.2743961,18.339372 Z" id="Path" fill="#FA7660"></path>
                    </g>
                </g>
            </g>
        </g>
    </g>
</svg>