<?xml version="1.0" encoding="UTF-8"?>
<svg width="25px" height="22px" viewBox="0 0 25 22" version="1.1" xmlns="http://www.w3.org/2000/svg" xmlns:xlink="http://www.w3.org/1999/xlink">
    <title>icon-twitter-footer</title>
    <g id="MDv5" stroke="none" stroke-width="1" fill="none" fill-rule="evenodd">
        <g id="Home" transform="translate(-70.000000, -3599.000000)" fill="#051319" fill-rule="nonzero">
            <g id="footer" transform="translate(0.000000, 3359.000000)">
                <g id="left" transform="translate(69.000000, 104.000000)">
                    <g id="icon-twitter-footer" transform="translate(1.000000, 136.000000)">
                        <path d="M22.4489796,5.94919049 C22.4489796,5.7207748 22.4489796,5.49235911 22.4389756,5.26394341 C23.4393757,4.51640116 24.3097239,3.5715908 25,2.50219007 C24.0796318,2.92787385 23.0892357,3.2082022 22.0488195,3.34317511 C23.1092437,2.68907563 23.9195678,1.64043996 24.3097239,0.394536193 C23.3193277,1.00710555 22.2188876,1.44317186 21.0484194,1.68197009 C20.1080432,0.643716946 18.777511,0 17.3069228,0 C14.4757903,0 12.1748699,2.38798222 12.1748699,5.3262386 C12.1748699,5.74153986 12.2248899,6.14645858 12.304922,6.54099478 C8.0432173,6.32296161 4.26170468,4.19454268 1.73069228,0.975957953 C1.29051621,1.76503034 1.04041617,2.6786931 1.04041617,3.65465105 C1.04041617,5.50274164 1.95078031,7.13279905 3.32132853,8.08799196 C2.4809924,8.05684439 1.69067627,7.81804615 1.00040016,7.42350993 C1.00040016,7.444275 1.00040016,7.46504007 1.00040016,7.49618764 C1.00040016,10.0710555 2.77110845,12.230622 5.11204482,12.7186009 C4.68187275,12.8431914 4.23169268,12.9054865 3.7615046,12.9054865 C3.43137255,12.9054865 3.1112445,12.8743389 2.80112045,12.8120437 C3.45138055,14.9300801 5.35214086,16.4666948 7.59303723,16.5082249 C5.83233293,17.9410143 3.62144858,18.7923818 1.2204882,18.7923818 C0.810324128,18.7923818 0.400160064,18.7716168 0,18.7197041 C2.26090436,20.2147886 4.96198479,21.0973038 7.85314128,21.0973038 C17.2869148,21.0973038 22.4489796,12.9781643 22.4489796,5.94919049 Z" id="Path"></path>
                    </g>
                </g>
            </g>
        </g>
    </g>
</svg>