<?xml version="1.0" encoding="UTF-8"?>
<svg width="54px" height="150px" viewBox="0 0 54 150" version="1.1" xmlns="http://www.w3.org/2000/svg" xmlns:xlink="http://www.w3.org/1999/xlink">
    <title>img-newsletter-arrow</title>
    <g id="MDv5" stroke="none" stroke-width="1" fill="none" fill-rule="evenodd">
        <g id="Home" transform="translate(-926.000000, -1257.000000)" fill="#051319" fill-rule="nonzero">
            <g id="newsletter" transform="translate(293.000000, 896.000000)">
                <g id="img-newsletter-arrow" transform="translate(660.000000, 436.000000) scale(-1, 1) translate(-660.000000, -436.000000) translate(633.000000, 361.000000)">
                    <path d="M-46.8722032,50.7815743 C-46.8702081,49.6531992 -46.0561934,49.4820524 -45.0865583,49.7387726 C-36.8466549,51.9139295 -28.6047563,54.1189376 -20.678089,57.2791839 C-19.249573,57.8463566 -17.7472371,59.1319479 -17.2823709,60.6444084 C-16.9112759,61.8523866 -17.6195485,62.8175752 -18.9283564,62.2961744 C-26.8550238,59.1359281 -30.9597136,58.5635247 -39.199617,56.3883678 L-38.8458298,56.4793107 C-38.1947077,57.018378 -37.6574737,57.7177718 -37.3534189,58.3379062 C-32.2957542,68.6544784 -24.7162402,77.327245 -14.9420787,83.4367891 C1.9467306,93.996151 23.3724746,96.0260321 42.675396,92.5732441 C62.7205073,88.9891109 82.0453752,79.5223027 95.8676635,64.4235694 C97.6932111,62.4314998 102.525426,67.1559485 100.667956,69.1838396 C92.5238189,78.079495 82.4184652,85.0706444 71.4691698,90.1035555 C51.8829394,99.1086653 29.0446405,102.171398 7.92215693,97.3952068 C-13.176882,92.6227947 -31.1355567,79.3936249 -41.2128195,60.3235299 C-41.2903049,68.9030445 -41.5791185,75.8658864 -41.5930787,84.9830809 C-41.5990641,88.0060116 -46.9180913,84.1293367 -46.9143317,82.0516937 C-46.89814,71.6276572 -46.884174,61.2056108 -46.8722032,50.7815743 Z" id="Combined-Shape" transform="translate(27.085668, 74.634603) scale(-1, 1) rotate(-91.000000) translate(-27.085668, -74.634603) "></path>
                </g>
            </g>
        </g>
    </g>
</svg>